<svg xmlns="http://www.w3.org/2000/svg" xmlns:xlink="http://www.w3.org/1999/xlink" viewBox="415 580 670 295" preserveAspectRatio="xMidYMid meet" version="1.0"><defs><g/><clipPath id="35baf59629"><rect x="0" width="642" y="0" height="278"/></clipPath></defs><g transform="matrix(1, 0, 0, 1, 429, 587)"><g clip-path="url(#35baf59629)"><g fill="#e90000" fill-opacity="1"><g transform="translate(0.787828, 216.243015)"><g><path d="M 124.390625 0 C 123.085938 0 120.921875 0.203125 117.890625 0.609375 C 114.867188 1.023438 111.722656 1.4375 108.453125 1.84375 C 105.179688 2.25 102.234375 2.453125 99.609375 2.453125 C 92.085938 2.453125 86.078125 0.242188 81.578125 -4.171875 C 77.078125 -8.585938 73.597656 -14.472656 71.140625 -21.828125 C 68.691406 -29.191406 66.851562 -37.25 65.625 -46 C 64.40625 -54.75 63.34375 -63.457031 62.4375 -72.125 C 61.539062 -80.800781 60.394531 -88.816406 59 -96.171875 C 57.613281 -103.535156 55.53125 -109.425781 52.75 -113.84375 C 49.96875 -118.257812 45.960938 -120.46875 40.734375 -120.46875 C 39.421875 -120.46875 38.023438 -118.175781 36.546875 -113.59375 C 35.078125 -109.019531 34.34375 -102.5625 34.34375 -94.21875 C 34.34375 -83.75 36.179688 -70.457031 39.859375 -54.34375 C 43.546875 -38.226562 50.625 -20.113281 61.09375 0 C 55.53125 -1.3125 50.375 -2.253906 45.625 -2.828125 C 40.882812 -3.398438 36.226562 -3.6875 31.65625 -3.6875 C 27.238281 -3.6875 22.695312 -3.398438 18.03125 -2.828125 C 13.375 -2.253906 8.179688 -1.3125 2.453125 0 C 10.140625 -13.25 16.066406 -27.273438 20.234375 -42.078125 C 24.410156 -56.878906 26.5 -71.476562 26.5 -85.875 C 26.5 -100.4375 24.410156 -115.078125 20.234375 -129.796875 C 16.066406 -144.515625 10.140625 -158.5 2.453125 -171.75 C 3.921875 -171.75 6.128906 -171.953125 9.078125 -172.359375 C 12.023438 -172.773438 15.132812 -173.1875 18.40625 -173.59375 C 21.675781 -174 24.535156 -174.203125 26.984375 -174.203125 C 34.515625 -174.203125 40.523438 -171.992188 45.015625 -167.578125 C 49.515625 -163.160156 52.988281 -157.269531 55.4375 -149.90625 C 57.894531 -142.550781 59.738281 -134.535156 60.96875 -125.859375 C 62.195312 -117.191406 63.21875 -108.484375 64.03125 -99.734375 C 64.851562 -90.984375 66 -82.925781 67.46875 -75.5625 C 68.945312 -68.207031 71.078125 -62.320312 73.859375 -57.90625 C 76.640625 -53.488281 80.644531 -51.28125 85.875 -51.28125 C 87.34375 -51.28125 88.8125 -53.566406 90.28125 -58.140625 C 91.757812 -62.722656 92.5 -69.269531 92.5 -77.78125 C 92.5 -88.414062 90.65625 -101.742188 86.96875 -117.765625 C 83.289062 -133.796875 76.21875 -151.789062 65.75 -171.75 C 71.476562 -170.601562 76.671875 -169.703125 81.328125 -169.046875 C 85.992188 -168.398438 90.535156 -168.078125 94.953125 -168.078125 C 99.535156 -168.078125 104.195312 -168.398438 108.9375 -169.046875 C 113.6875 -169.703125 118.835938 -170.601562 124.390625 -171.75 C 116.867188 -158.5 110.984375 -144.515625 106.734375 -129.796875 C 102.484375 -115.078125 100.359375 -100.4375 100.359375 -85.875 C 100.359375 -71.476562 102.484375 -56.878906 106.734375 -42.078125 C 110.984375 -27.273438 116.867188 -13.25 124.390625 0 Z M 124.390625 0 "/></g></g></g><g fill="#e90000" fill-opacity="1"><g transform="translate(118.316957, 216.243015)"><g><path d="M 2.453125 -86.359375 C 2.453125 -104.023438 4.492188 -119.441406 8.578125 -132.609375 C 12.671875 -145.785156 18.394531 -156.007812 25.75 -163.28125 C 33.113281 -170.5625 41.539062 -174.203125 51.03125 -174.203125 C 60.351562 -174.203125 68.695312 -170.644531 76.0625 -163.53125 C 83.425781 -156.414062 89.191406 -146.351562 93.359375 -133.34375 C 97.523438 -120.34375 99.609375 -105.007812 99.609375 -87.34375 C 99.609375 -69.675781 97.523438 -54.09375 93.359375 -40.59375 C 89.191406 -27.101562 83.425781 -16.554688 76.0625 -8.953125 C 68.695312 -1.347656 60.351562 2.453125 51.03125 2.453125 C 41.707031 2.453125 33.363281 -1.265625 26 -8.703125 C 18.644531 -16.148438 12.878906 -26.539062 8.703125 -39.875 C 4.535156 -53.207031 2.453125 -68.703125 2.453125 -86.359375 Z M 74.59375 -19.390625 C 77.695312 -19.390625 79.941406 -21.144531 81.328125 -24.65625 C 82.722656 -28.175781 83.421875 -32.878906 83.421875 -38.765625 C 83.421875 -48.421875 82.273438 -58.644531 79.984375 -69.4375 C 77.691406 -80.226562 74.582031 -90.734375 70.65625 -100.953125 C 66.738281 -111.179688 62.363281 -120.46875 57.53125 -128.8125 C 52.707031 -137.15625 47.757812 -143.78125 42.6875 -148.6875 C 37.625 -153.59375 32.800781 -156.046875 28.21875 -156.046875 C 25.601562 -156.046875 23.640625 -153.957031 22.328125 -149.78125 C 21.015625 -145.613281 20.359375 -140.175781 20.359375 -133.46875 C 20.359375 -125.78125 21.175781 -116.945312 22.8125 -106.96875 C 24.445312 -97 26.816406 -86.898438 29.921875 -76.671875 C 33.035156 -66.453125 36.800781 -57.003906 41.21875 -48.328125 C 45.632812 -39.660156 50.664062 -32.671875 56.3125 -27.359375 C 61.957031 -22.046875 68.050781 -19.390625 74.59375 -19.390625 Z M 74.59375 -19.390625 "/></g></g></g><g fill="#e90000" fill-opacity="1"><g transform="translate(211.309714, 216.243015)"><g><path d="M 66.5 -110.90625 C 64.851562 -114.832031 62.765625 -119.367188 60.234375 -124.515625 C 57.703125 -129.671875 54.757812 -134.660156 51.40625 -139.484375 C 48.050781 -144.304688 44.410156 -148.269531 40.484375 -151.375 C 36.554688 -154.488281 32.46875 -156.046875 28.21875 -156.046875 C 25.601562 -156.046875 23.640625 -153.957031 22.328125 -149.78125 C 21.015625 -145.613281 20.359375 -140.175781 20.359375 -133.46875 C 20.359375 -125.78125 21.175781 -116.945312 22.8125 -106.96875 C 24.445312 -97 26.816406 -86.898438 29.921875 -76.671875 C 33.035156 -66.453125 36.800781 -57.003906 41.21875 -48.328125 C 45.632812 -39.660156 50.664062 -32.671875 56.3125 -27.359375 C 61.957031 -22.046875 68.050781 -19.390625 74.59375 -19.390625 C 77.863281 -19.390625 80.109375 -20.613281 81.328125 -23.0625 C 82.554688 -25.519531 83.171875 -28.546875 83.171875 -32.140625 C 83.171875 -36.066406 82.597656 -40.523438 81.453125 -45.515625 C 80.304688 -50.503906 78.914062 -55.570312 77.28125 -60.71875 C 75.644531 -65.875 74.050781 -70.578125 72.5 -74.828125 C 70.945312 -79.085938 69.765625 -82.28125 68.953125 -84.40625 L 95.4375 -91.515625 C 95.4375 -84.160156 95.066406 -76.269531 94.328125 -67.84375 C 93.597656 -59.414062 92.332031 -51.03125 90.53125 -42.6875 C 88.738281 -34.34375 86.207031 -26.773438 82.9375 -19.984375 C 79.664062 -13.203125 75.453125 -7.765625 70.296875 -3.671875 C 65.140625 0.410156 58.960938 2.453125 51.765625 2.453125 C 42.285156 2.453125 33.820312 -1.222656 26.375 -8.578125 C 18.9375 -15.941406 13.085938 -26.289062 8.828125 -39.625 C 4.578125 -52.957031 2.453125 -68.535156 2.453125 -86.359375 C 2.453125 -104.023438 4.578125 -119.441406 8.828125 -132.609375 C 13.085938 -145.785156 18.9375 -156.007812 26.375 -163.28125 C 33.820312 -170.5625 42.285156 -174.203125 51.765625 -174.203125 C 58.960938 -174.203125 65.097656 -172.398438 70.171875 -168.796875 C 75.242188 -165.203125 79.414062 -160.625 82.6875 -155.0625 C 85.957031 -149.5 88.453125 -143.773438 90.171875 -137.890625 C 91.890625 -132.003906 92.992188 -126.851562 93.484375 -122.4375 Z M 66.5 -110.90625 "/></g></g></g><g fill="#e90000" fill-opacity="1"><g transform="translate(299.885885, 216.243015)"><g><path d="M 98.875 -104.515625 L 96.671875 -104.515625 C 96.671875 -109.429688 95.6875 -114.628906 93.71875 -120.109375 C 91.757812 -125.585938 89.265625 -130.78125 86.234375 -135.6875 C 83.210938 -140.59375 80.066406 -144.554688 76.796875 -147.578125 C 73.523438 -150.609375 70.5 -152.125 67.71875 -152.125 C 65.425781 -152.125 63.953125 -149.585938 63.296875 -144.515625 C 62.648438 -139.441406 62.734375 -132.648438 63.546875 -124.140625 C 64.367188 -115.640625 65.757812 -106.070312 67.71875 -95.4375 C 69.675781 -84.8125 72.085938 -73.769531 74.953125 -62.3125 C 77.816406 -50.863281 80.925781 -39.78125 84.28125 -29.0625 C 87.632812 -18.351562 91.109375 -8.664062 94.703125 0 C 86.859375 -1.632812 79.703125 -2.738281 73.234375 -3.3125 C 66.773438 -3.882812 60.351562 -3.882812 53.96875 -3.3125 C 47.59375 -2.738281 40.398438 -1.632812 32.390625 0 C 42.203125 -19.46875 48.90625 -38.28125 52.5 -56.4375 C 56.101562 -74.59375 57.90625 -92.828125 57.90625 -111.140625 C 57.90625 -113.597656 57.695312 -117.035156 57.28125 -121.453125 C 56.875 -125.867188 56.054688 -130.40625 54.828125 -135.0625 C 53.609375 -139.726562 51.851562 -143.695312 49.5625 -146.96875 C 47.269531 -150.238281 44.328125 -151.875 40.734375 -151.875 C 38.109375 -151.875 35.851562 -150.15625 33.96875 -146.71875 C 32.09375 -143.289062 30.539062 -139 29.3125 -133.84375 C 28.09375 -128.6875 27.15625 -123.453125 26.5 -118.140625 C 25.84375 -112.828125 25.351562 -108.285156 25.03125 -104.515625 L 22.8125 -104.515625 C 22.8125 -111.066406 21.832031 -118.472656 19.875 -126.734375 C 17.914062 -134.992188 15.421875 -143.128906 12.390625 -151.140625 C 9.359375 -159.148438 6.046875 -166.019531 2.453125 -171.75 C 23.222656 -169.300781 39.945312 -168.078125 52.625 -168.078125 C 65.300781 -168.078125 74.585938 -168.078125 80.484375 -168.078125 C 86.367188 -168.078125 92.414062 -168.398438 98.625 -169.046875 C 104.84375 -169.703125 111.71875 -170.601562 119.25 -171.75 C 112.539062 -160.300781 107.46875 -148.6875 104.03125 -136.90625 C 100.59375 -125.132812 98.875 -114.335938 98.875 -104.515625 Z M 98.875 -104.515625 "/></g></g></g><g fill="#e90000" fill-opacity="1"><g transform="translate(412.262393, 216.243015)"><g><path d="M 57.90625 -80.234375 C 56.269531 -80.234375 54.265625 -79.820312 51.890625 -79 C 49.515625 -78.1875 47.265625 -77.78125 45.140625 -77.78125 C 43.503906 -77.78125 41.910156 -78.226562 40.359375 -79.125 C 38.804688 -80.03125 38.03125 -81.546875 38.03125 -83.671875 C 38.03125 -87.265625 39.460938 -90.285156 42.328125 -92.734375 C 45.191406 -95.191406 48.546875 -97.484375 52.390625 -99.609375 C 56.234375 -101.742188 59.664062 -104.160156 62.6875 -106.859375 C 65.71875 -109.554688 67.519531 -112.988281 68.09375 -117.15625 C 68.664062 -121.332031 67.066406 -126.691406 63.296875 -133.234375 C 59.046875 -140.585938 54.546875 -146.226562 49.796875 -150.15625 C 45.054688 -154.082031 40.5625 -156.046875 36.3125 -156.046875 C 33.695312 -156.046875 31.816406 -153.632812 30.671875 -148.8125 C 29.523438 -143.988281 28.992188 -137.363281 29.078125 -128.9375 C 29.160156 -120.507812 29.894531 -110.976562 31.28125 -100.34375 C 32.675781 -89.71875 34.722656 -78.597656 37.421875 -66.984375 C 40.117188 -55.367188 43.390625 -43.796875 47.234375 -32.265625 C 51.078125 -20.734375 55.535156 -9.976562 60.609375 0 C 49.648438 -2.457031 39.671875 -3.6875 30.671875 -3.6875 C 26.421875 -3.6875 22.046875 -3.398438 17.546875 -2.828125 C 13.046875 -2.253906 8.015625 -1.3125 2.453125 0 C 10.140625 -13.082031 16.066406 -27.066406 20.234375 -41.953125 C 24.410156 -56.835938 26.5 -71.476562 26.5 -85.875 C 26.5 -100.4375 24.410156 -115.078125 20.234375 -129.796875 C 16.066406 -144.515625 10.222656 -158.5 2.703125 -171.75 C 6.128906 -172.570312 10.296875 -173.1875 15.203125 -173.59375 C 20.117188 -174 25.191406 -174.203125 30.421875 -174.203125 C 38.441406 -174.203125 46.660156 -173.546875 55.078125 -172.234375 C 63.503906 -170.929688 71.359375 -168.765625 78.640625 -165.734375 C 85.921875 -162.710938 91.804688 -158.582031 96.296875 -153.34375 C 100.796875 -148.113281 103.046875 -141.570312 103.046875 -133.71875 C 103.046875 -128.15625 101.207031 -123.285156 97.53125 -119.109375 C 93.851562 -114.941406 89.191406 -111.265625 83.546875 -108.078125 C 77.898438 -104.890625 72.132812 -101.984375 66.25 -99.359375 C 60.363281 -96.742188 55.289062 -94.210938 51.03125 -91.765625 C 45.3125 -88.660156 42.453125 -86.039062 42.453125 -83.90625 C 42.453125 -83.09375 43.023438 -82.6875 44.171875 -82.6875 C 45.960938 -82.6875 48.898438 -83.460938 52.984375 -85.015625 C 57.078125 -86.566406 60.925781 -87.34375 64.53125 -87.34375 C 69.925781 -87.34375 74.832031 -85.21875 79.25 -80.96875 C 83.664062 -76.71875 87.628906 -71.15625 91.140625 -64.28125 C 94.660156 -57.414062 97.769531 -50.015625 100.46875 -42.078125 C 103.164062 -34.140625 105.492188 -26.445312 107.453125 -19 C 109.421875 -11.5625 110.976562 -5.226562 112.125 0 C 103.78125 -2.457031 95.847656 -3.6875 88.328125 -3.6875 C 80.640625 -3.6875 72.625 -2.457031 64.28125 0 C 64.9375 -2.78125 65.59375 -6.785156 66.25 -12.015625 C 66.90625 -17.253906 67.476562 -23.0625 67.96875 -29.4375 C 68.457031 -35.820312 68.703125 -42.117188 68.703125 -48.328125 C 68.703125 -57.328125 67.921875 -64.894531 66.359375 -71.03125 C 64.804688 -77.164062 61.988281 -80.234375 57.90625 -80.234375 Z M 57.90625 -80.234375 "/></g></g></g><g fill="#e90000" fill-opacity="1"><g transform="translate(517.768714, 216.243015)"><g><path d="M 2.453125 0 C 12.265625 -19.46875 20.113281 -38.28125 26 -56.4375 C 31.894531 -74.59375 34.84375 -92.828125 34.84375 -111.140625 C 34.84375 -120.960938 33.898438 -130.898438 32.015625 -140.953125 C 30.140625 -151.015625 27.15625 -161.28125 23.0625 -171.75 C 30.582031 -170.601562 37.410156 -169.703125 43.546875 -169.046875 C 49.679688 -168.398438 55.691406 -168.078125 61.578125 -168.078125 C 67.472656 -168.078125 73.523438 -168.398438 79.734375 -169.046875 C 85.953125 -169.703125 92.828125 -170.601562 100.359375 -171.75 C 92.335938 -150.8125 88.328125 -130.609375 88.328125 -111.140625 C 88.328125 -92.828125 91.3125 -74.59375 97.28125 -56.4375 C 103.25 -38.28125 111.144531 -19.46875 120.96875 0 C 115.5625 -1.3125 110.609375 -2.253906 106.109375 -2.828125 C 101.617188 -3.398438 97.242188 -3.6875 92.984375 -3.6875 C 88.734375 -3.6875 84.359375 -3.398438 79.859375 -2.828125 C 75.359375 -2.253906 70.332031 -1.3125 64.78125 0 C 71.644531 -10.789062 76.507812 -21.828125 79.375 -33.109375 C 82.238281 -44.398438 83.671875 -55.445312 83.671875 -66.25 C 83.671875 -77.863281 82.359375 -88.863281 79.734375 -99.25 C 77.117188 -109.632812 73.890625 -118.789062 70.046875 -126.71875 C 66.203125 -134.65625 62.316406 -140.875 58.390625 -145.375 C 54.460938 -149.875 51.109375 -152.125 48.328125 -152.125 C 42.929688 -152.125 40.234375 -143.945312 40.234375 -127.59375 C 40.234375 -115.8125 41.992188 -99.492188 45.515625 -78.640625 C 49.035156 -57.785156 54.960938 -31.570312 63.296875 0 C 57.410156 -1.3125 52.054688 -2.253906 47.234375 -2.828125 C 42.410156 -3.398438 37.625 -3.6875 32.875 -3.6875 C 28.300781 -3.6875 23.597656 -3.398438 18.765625 -2.828125 C 13.941406 -2.253906 8.503906 -1.3125 2.453125 0 Z M 2.453125 0 "/></g></g></g></g></g></svg>